<svg width="900" height="540" viewBox="0 0 900 540" fill="none" xmlns="http://www.w3.org/2000/svg">
  <rect width="900" height="540" rx="22" fill="#0D1424"/>
  <rect x="0" y="0" width="900" height="8" rx="4" fill="#2AA198"/>

  <text x="34" y="48" fill="#EAF1FB" font-family="Segoe UI, Inter, Arial, sans-serif" font-size="28" font-weight="700">Chat AI Translator - Popup</text>

  <rect x="34" y="74" width="832" height="52" rx="10" fill="#0F1729" stroke="#283B5F"/>
  <text x="54" y="107" fill="#CFE2FA" font-family="Segoe UI, Inter, Arial, sans-serif" font-size="18">免 API 翻譯模式已啟用，可直接使用。</text>

  <rect x="34" y="150" width="390" height="64" rx="10" fill="#0F1729" stroke="#283B5F"/>
  <text x="54" y="178" fill="#AFC5DF" font-family="Segoe UI, Inter, Arial, sans-serif" font-size="16">翻譯模式</text>
  <text x="54" y="202" fill="#EAF1FB" font-family="Segoe UI, Inter, Arial, sans-serif" font-size="18">OpenRouter</text>

  <rect x="444" y="150" width="422" height="64" rx="10" fill="#0F1729" stroke="#283B5F"/>
  <text x="464" y="178" fill="#AFC5DF" font-family="Segoe UI, Inter, Arial, sans-serif" font-size="16">Translation Style</text>
  <text x="464" y="202" fill="#EAF1FB" font-family="Segoe UI, Inter, Arial, sans-serif" font-size="18">Natural Taiwan</text>

  <rect x="34" y="238" width="832" height="64" rx="10" fill="#0F1729" stroke="#283B5F"/>
  <text x="54" y="266" fill="#AFC5DF" font-family="Segoe UI, Inter, Arial, sans-serif" font-size="16">API URL</text>
  <text x="54" y="290" fill="#EAF1FB" font-family="Consolas, Menlo, monospace" font-size="17">https://openrouter.ai/api/v1/chat/completions</text>

  <rect x="34" y="324" width="832" height="64" rx="10" fill="#0F1729" stroke="#283B5F"/>
  <text x="54" y="352" fill="#AFC5DF" font-family="Segoe UI, Inter, Arial, sans-serif" font-size="16">Model</text>
  <text x="54" y="376" fill="#EAF1FB" font-family="Consolas, Menlo, monospace" font-size="17">openai/gpt-4o-mini</text>

  <rect x="34" y="418" width="220" height="62" rx="10" fill="#2A9D8F"/>
  <text x="108" y="455" fill="#061016" font-family="Segoe UI, Inter, Arial, sans-serif" font-size="20" font-weight="700">儲存</text>

  <rect x="272" y="418" width="220" height="62" rx="10" fill="#213049"/>
  <text x="328" y="455" fill="#DDEBFA" font-family="Segoe UI, Inter, Arial, sans-serif" font-size="20" font-weight="700">清除 Key</text>

  <text x="526" y="456" fill="#87D1FF" font-family="Segoe UI, Inter, Arial, sans-serif" font-size="18">已儲存 OpenRouter 設定</text>
</svg>
